<svg width="24" height="24" viewBox="0 0 24 24" fill="none" xmlns="http://www.w3.org/2000/svg">
<g clip-path="url(#clip0_3405_1974)">
<path d="M17.5009 1.91406C16.3749 1.93158 15.2734 2.24592 14.3077 2.82533C13.342 3.40475 12.5463 4.22873 12.0009 5.21406C11.4556 4.22873 10.6599 3.40475 9.69417 2.82533C8.72848 2.24592 7.62698 1.93158 6.50094 1.91406C4.70588 1.99205 3.01464 2.77732 1.79672 4.09829C0.578794 5.41927 -0.0668157 7.16859 0.000934853 8.96406C0.000934853 13.5111 4.78693 18.4771 8.80093 21.8441C9.69715 22.5972 10.8303 23.0101 12.0009 23.0101C13.1716 23.0101 14.3047 22.5972 15.2009 21.8441C19.2149 18.4771 24.0009 13.5111 24.0009 8.96406C24.0687 7.16859 23.4231 5.41927 22.2052 4.09829C20.9872 2.77732 19.296 1.99205 17.5009 1.91406Z" fill="url(#paint0_linear_3405_1974)"/>
</g>
<defs>
<linearGradient id="paint0_linear_3405_1974" x1="12.9933" y1="1.91406" x2="12.9933" y2="23.0101" gradientUnits="userSpaceOnUse">
<stop offset="0.175" stop-color="#FF998C"/>
<stop offset="0.375" stop-color="#FF9433"/>
<stop offset="0.85" stop-color="#FF4372"/>
</linearGradient>
<clipPath id="clip0_3405_1974">
<rect width="24" height="24" fill="white"/>
</clipPath>
</defs>
</svg>
