<svg width="14" height="14" viewBox="0 0 14 14" fill="none" xmlns="http://www.w3.org/2000/svg">
<path fill-rule="evenodd" clip-rule="evenodd" d="M7.0013 1.16667C5.76363 1.16667 4.57664 1.65833 3.70147 2.5335C2.8263 3.40867 2.33464 4.59566 2.33464 5.83333C2.33464 7.64053 3.51048 9.39415 4.79977 10.7551C5.43249 11.4229 6.06719 11.9697 6.54436 12.3497C6.72195 12.4911 6.87707 12.6089 7.0013 12.7007C7.12554 12.6089 7.28065 12.4911 7.45824 12.3497C7.93541 11.9697 8.57011 11.4229 9.20283 10.7551C10.4921 9.39415 11.668 7.64053 11.668 5.83333C11.668 4.59566 11.1763 3.40867 10.3011 2.5335C9.42596 1.65833 8.23898 1.16667 7.0013 1.16667ZM7.0013 13.4167C6.67773 13.902 6.67758 13.9019 6.67741 13.9018L6.67574 13.9007L6.67186 13.8981L6.65849 13.8891C6.64713 13.8813 6.63093 13.8703 6.61021 13.8559C6.56878 13.8272 6.50924 13.7854 6.43418 13.7312C6.28412 13.6228 6.07168 13.4646 5.81762 13.2623C5.31041 12.8584 4.63261 12.275 3.95283 11.5574C2.61712 10.1475 1.16797 8.10947 1.16797 5.83333C1.16797 4.28624 1.78255 2.80251 2.87651 1.70854C3.97047 0.614582 5.45421 0 7.0013 0C8.5484 0 10.0321 0.614582 11.1261 1.70854C12.2201 2.80251 12.8346 4.28624 12.8346 5.83333C12.8346 8.10947 11.3855 10.1475 10.0498 11.5574C9.36999 12.275 8.69219 12.8584 8.18499 13.2623C7.93092 13.4646 7.71848 13.6228 7.56842 13.7312C7.49336 13.7854 7.43383 13.8272 7.39239 13.8559C7.37167 13.8703 7.35547 13.8813 7.34412 13.8891L7.33075 13.8981L7.32686 13.9007L7.32563 13.9015C7.32546 13.9016 7.32488 13.902 7.0013 13.4167ZM7.0013 13.4167L7.32488 13.902C7.12894 14.0327 6.87335 14.0324 6.67741 13.9018L7.0013 13.4167Z" fill="white"/>
<path fill-rule="evenodd" clip-rule="evenodd" d="M7.0013 4.66667C6.35697 4.66667 5.83464 5.189 5.83464 5.83333C5.83464 6.47767 6.35697 7 7.0013 7C7.64563 7 8.16797 6.47767 8.16797 5.83333C8.16797 5.189 7.64563 4.66667 7.0013 4.66667ZM4.66797 5.83333C4.66797 4.54467 5.71264 3.5 7.0013 3.5C8.28997 3.5 9.33464 4.54467 9.33464 5.83333C9.33464 7.122 8.28997 8.16667 7.0013 8.16667C5.71264 8.16667 4.66797 7.122 4.66797 5.83333Z" fill="white"/>
</svg>
